<svg width="257" height="50" viewBox="0 0 257 50" fill="none" xmlns="http://www.w3.org/2000/svg">
<g clip-path="url(#clip0_265_2053)">
<path d="M38.5245 17.9916C40.7286 15.52 44.818 16.2855 46.1345 19.2502C47.5657 22.4741 44.9654 25.8047 41.5124 25.5576C37.708 25.2864 36.0486 20.7679 38.5245 17.9904V17.9916Z" fill="white"/>
<path d="M18.7695 19.5381C18.4905 18.8974 18.1197 18.2915 17.6136 17.8056L17.6112 17.8116C15.8322 16.0863 12.7827 15.9495 10.9855 17.964C10.5085 18.4991 10.1848 19.099 10 19.7217C10.9191 19.6125 11.6558 19.9785 12.1401 20.7883C12.808 22.3541 13.4336 23.9402 14.0375 25.5348C15.6003 29.6549 17.0267 33.8363 18.7163 37.8988C18.7827 38.0572 18.8504 38.212 18.9216 38.3643C19.0038 38.5599 19.0871 38.7543 19.1716 38.9474C19.4506 39.5881 19.8214 40.194 20.3274 40.68L20.3299 40.674C22.1089 42.3993 25.1584 42.5361 26.9556 40.5216C27.4326 39.9865 27.7563 39.3866 27.9411 38.7639C27.022 38.8731 26.2853 38.5071 25.801 37.6972L18.7695 19.5381Z" fill="white"/>
<path d="M30.8301 19.5381C30.5511 18.8974 30.1804 18.2915 29.6743 17.8056L29.6719 17.8116C27.8929 16.0863 24.8433 15.9495 23.0462 17.964C22.5691 18.4991 22.2455 19.099 22.0607 19.7217C22.9798 19.6125 23.7165 19.9785 24.2008 20.7883C24.8687 22.3541 25.4943 23.9402 26.0982 25.5348C27.661 29.6549 29.0873 33.8363 30.777 37.8988C30.8434 38.0572 30.911 38.212 30.9823 38.3643C31.0644 38.5599 31.1478 38.7543 31.2323 38.9474C31.5113 39.5881 31.8821 40.194 32.3881 40.68L32.3905 40.674C34.1695 42.3993 37.2191 42.5361 39.0162 40.5216C39.4933 39.9865 39.817 39.3866 40.0018 38.7639C39.0827 38.8731 38.3459 38.5071 37.8616 37.6972C37.1937 36.1315 36.5681 34.5453 35.9643 32.9508L30.8301 19.5369V19.5381Z" fill="white"/>
<path d="M67.5342 33.5652H53.5892C54.3493 36.8735 57.6446 38.3415 60.9074 37.077C62.2617 36.5523 62.4752 35.8064 63.5024 35.0665L67.2521 36.9318C67.4181 37.1828 66.794 37.9918 66.6342 38.2285C64.818 40.9052 61.2681 42.1448 58.0116 41.9866C44.6158 41.3347 45.507 21.3976 60.1485 23.1035C63.3052 23.4711 67.5354 27.2066 67.5354 30.2901V33.5663L67.5342 33.5652ZM62.2305 30.7576C61.6501 26.2608 54.6876 26.4178 53.9811 30.7576H62.2305Z" fill="white"/>
<path d="M74.786 15V24.3045C76.3409 23.8339 77.6079 22.9167 79.3593 22.7888C93.2052 21.7847 93.0062 43.5496 78.2444 41.912C74.0283 41.4449 69.5354 37.6893 69.5354 33.3243V15H74.7873H74.786ZM79.0182 27.7729C72.8652 28.5513 73.7774 38.0779 80.7066 37.0171C86.1327 36.1868 85.2081 26.9897 79.0182 27.7729Z" fill="white"/>
<path d="M109.088 34.8975C109.339 34.649 110.227 33.2578 110.397 33.2578L114.482 35.5626C114.778 35.9792 113.756 37.2827 113.457 37.6518C105.205 47.8527 88.2338 38.6555 92.0996 25.04C94.6553 16.0365 107.341 12.6086 113.355 20.1137C113.678 20.5169 114.708 21.8655 114.421 22.3162L110.502 24.5345L110.204 24.4431C104.719 17.145 95.0596 22.8339 97.3993 31.5231C98.7749 36.6334 105.34 38.6044 109.09 34.8975H109.088Z" fill="white"/>
<path d="M124.327 23.0012C120.667 22.9454 116.535 25.8509 116.535 29.8288V42H121.485V30.5751C121.485 30.5597 121.491 30.5336 121.502 30.4992C121.597 29.6022 122.105 28.8323 122.829 28.3886C124.143 27.513 126.219 28.0505 127.535 28.614V24.2267C127.535 23.2895 125.077 23.0119 124.33 23L124.327 23.0012Z" fill="white"/>
<path d="M149.535 42H144.541L144.539 39.4308C136.631 46.4863 126.122 36.9889 130.612 28.1924C135.066 19.465 149.535 22.4102 149.535 32.0338V42ZM138.537 27.8652C133.03 28.7863 133.803 38.0682 140.558 36.9508C146.12 36.031 145.053 26.7752 138.537 27.8652Z" fill="white"/>
<path d="M166.011 14.5613V19.2814C162.78 18.0228 159.35 18.4859 159.917 22.6793H167.916V18.1476H173.06V22.6793H179.535V27.0214H173.06V34.5947C173.06 34.8623 173.598 36.0321 173.82 36.296C175.104 37.827 178.016 37.2775 179.535 36.3884V41.1085C175.737 42.6659 170.174 41.964 168.534 37.7586C168.327 37.2283 167.916 35.8449 167.916 35.3494V27.0202H159.917V42H154.773V27.0202H151.535V22.6781H154.773C154.029 15.8847 159.896 12.6032 166.011 14.5601V14.5613Z" fill="white"/>
<path d="M200.535 33.5937H186.652C187.569 38.2686 194.047 38.953 196.327 34.9235L200.317 37.0521C198.181 41.0533 193.897 42.6261 189.346 41.7766C177.291 39.5253 179.625 21.1124 193.351 23.1584C196.474 23.6245 200.535 27.4073 200.535 30.5058V33.5937ZM187.044 30.7867H194.964C195.382 30.6144 194.99 29.7129 194.822 29.425C192.952 26.2262 187.405 27.0769 187.045 30.7867H187.044Z" fill="white"/>
<path d="M207.936 42H202.535V29.9848C202.535 29.6517 202.976 28.1471 203.128 27.732C204.668 23.5002 210.464 21.8743 214.535 23.8082V28.3006L214.129 28.5004C212.467 27.644 210.004 27.5263 208.737 29.0499C208.558 29.2652 207.936 30.3773 207.936 30.5461V42Z" fill="white"/>
<path d="M220.649 35.9745C221.228 38.9699 229.377 37.983 226.798 35.2771C226.089 34.5342 221.736 34.0509 220.355 33.527C218.778 32.9288 217.267 31.6273 216.989 29.9657C215.656 22.0046 229.072 20.6708 231.913 26.9834L228.095 28.9644C227.44 27.1689 222.972 26.3351 222.348 28.2144C221.658 30.2935 226.025 30.5339 227.428 30.9119C229.669 31.5161 232.075 32.4479 232.457 34.9553C233.7 43.1138 219.865 44.2167 216.535 38.1038C216.533 37.8275 216.687 37.7916 216.87 37.66C217.383 37.2928 219.161 36.3298 219.754 36.0882C220.01 35.9829 220.397 35.8322 220.65 35.9733L220.649 35.9745Z" fill="white"/>
</g>
<defs>
<clipPath id="clip0_265_2053">
<rect width="257" height="50" fill="white"/>
</clipPath>
</defs>
</svg>
